<svg id="Layer_2" data-name="Layer 2"
    xmlns="http://www.w3.org/2000/svg"
    xmlns:xlink="http://www.w3.org/1999/xlink" viewBox="0 0 1116 403">
    <defs>
        <style>
      .cls-1, .cls-2 {
        fill: none;
      }

      .cls-3 {
        clip-path: url(#clippath);
      }

      .cls-2 {
        stroke: #15ca82;
        stroke-linecap: round;
        stroke-linejoin: round;
        stroke-width: 12px;
      }
        </style>
        <clipPath id="clippath">
            <rect class="cls-1" width="1116" height="403"/>
        </clipPath>
    </defs>
    <g id="hand_drawn" data-name="hand drawn">
        <g class="cls-3">
            <path class="cls-2" d="M-11.05,23.07c.22,.37,8.67-5.36,8.82-5.09,.49,.86-9.85,17.06-9.47,17.71,.89,1.54,37.69-24.02,38.67-22.33S-9.87,41.27-8.63,43.41c1.12,1.94,51.12-32.33,52.34-30.22,1.63,2.82-57.53,46.58-56.2,48.88,2.38,4.11,80.88-51,82.74-47.77,3.08,5.33-80.89,50.99-79.11,54.06,3.07,5.32,73.85-49.21,76.7-44.28,2.19,3.79-81.12,51.04-78.36,55.83,2.35,4.08,97.28-65.12,101.16-58.41,3.67,6.36-106.97,69.36-104.17,74.21C-10.13,101.61,126.82,7.33,130,12.85,134.88,21.3-22.09,113.08-18.87,118.65-14.65,125.96,142.31,14.28,147.21,22.76c5.4,9.35-164.41,98.47-158.28,109.08C-5.68,141.17,174.11,15.83,178.05,22.65c4.57,7.91-203.18,112.94-197.82,122.22C-13.56,155.62,197.81,3.03,204.83,15.2,211.02,25.91-23.7,148.71-15.51,162.89-10.14,172.18,220.61,8.7,228.35,22.1,233.39,30.84-14.29,156.31-8.22,166.83-1.71,178.1,233.19,14.26,238.9,24.15,246.83,37.89-11.28,157.95-2.71,172.8,5.11,186.35,246.26,5.88,256.3,23.27,262.54,34.07-12.13,172.1-3.49,187.06,5.7,202.98,271.5,7.58,280.47,23.11,289.14,38.12-20.75,189.76-12.92,203.33S297.76,1.75,307.38,18.41C319.18,38.85-20.89,209.62-12.95,223.37-3.22,240.21,324-.65,336.77,21.46,349.61,43.7-13.63,214.15-5.52,228.21,4.29,245.21,348.31,1.17,358.16,18.23,367.23,33.93-10.11,213.08,.65,231.73,13.24,253.53,353.07-3.59,366.86,20.3,378.15,39.85-27.75,239.48-19.84,253.17-10.44,269.47,365.19,4.4,376.65,24.25,386.14,40.68-28.42,243.78-13.68,269.3-4.41,285.37,417.75-.39,426.67,15.07,442.69,42.82-27.2,264.25-13.43,288.1,2.97,316.51,438.25-10.09,454.44,17.97,467.27,40.19-26.48,282.61-12.17,307.41,3.12,333.88,473.48-10.74,489.83,17.58,504.53,43.05-27.04,295.54-12.52,320.69,6.91,354.35,490.6-4.67,505.7,21.5,517.54,41.99-24.25,305.61-7.2,335.16,9.84,364.66,521.51-17.75,542.15,17.99,562.67,53.55-27.63,330.08-16.03,350.16-.83,376.5,540.14-18.2,560.6,17.23S-21.58,323.24-4.82,352.27C7.81,374.14,557.29-21.42,578.57,15.45,596.3,46.15-34.78,346.33-19.36,373.03,.13,406.79,572.69-6.66,589.09,21.74,602.96,45.77-32.33,351.27-12.89,384.94,6.51,418.54,607.56-10.27,623.58,17.47,646.81,57.72-10.14,356.63,9.77,391.12,28.04,422.76,624.62-15.82,647.12,23.15,669.23,61.46,11.42,350.65,34.22,390.14,55.45,426.91,655.2-12.09,674.13,20.69,697.13,60.52,46.47,358.65,65.28,391.23,80.83,418.17,701.3-21.38,720.96,12.68,741.26,47.83,81.37,360.99,96.54,387.27,120.09,428.07,719.44-9.92,735.71,18.25,758.03,56.91,98.67,362.27,116.25,392.71,136.35,427.53,746.29-15.55,765.56,17.83c16.5,28.57-645.64,342.44-627.96,373.06C161.27,431.88,768.88-6.6,783.18,18.18c14.84,25.7-643.35,326.23-620,366.69C184.2,421.26,775.41-5.27,791.28,22.23c18.07,31.29-625.99,330.24-605.5,365.73C202.18,416.36,803.95-9.24,821.4,20.98c18.74,32.45-629.65,338.84-615.35,363.6C219.01,407.03,816.45-6.39,833.15,22.52c17.93,31.06-634.23,336.36-614.65,370.28C236.72,424.35,839.58-5.72,856.87,24.24c12.34,21.37-619.91,330.42-603.58,358.7C274.49,419.66,866.51-4.99,881.19,20.42c17.74,30.73-615.83,330.76-596.91,363.54C297.52,406.89,894.08-3.14,909.25,23.13c18.11,31.36-612.41,337.07-597.51,362.88C324.87,408.74,935.08-13.87,952.4,16.12c19.51,33.79-629.64,338.41-613.42,366.51C359.81,418.71,955.45-8.54,970.71,17.9c20.62,35.71-629.3,347.18-613.81,374.01C378.88,429.97,977.13-18.33,999.71,20.78c19.43,33.65-643.33,343.36-626.53,372.46C396.2,433.11,1013.86-7.37,1027.16,15.67c23.4,40.53-644.33,344.27-626.38,375.36C415.77,416.99,1031.94-3.95,1045.18,18.98c16.54,28.66-635.99,341.08-618.93,370.63C446.78,425.16,1049.29-7.94,1065.67,20.44c12.76,22.1-638.48,335.28-620.11,367.11,13.76,23.82,618.3-410.36,641.42-370.32,15.44,26.74-642.27,336.19-619.84,375.04,14.8,25.64,630.03-417.53,653.32-377.19,13.78,23.87-638.79,353.71-625.88,376.09C511.16,419.85,1095.43-6.69,1117.5,31.53c14.74,25.53-592.85,326.27-578.98,350.3,18.63,32.28,561.44-361.46,577.6-333.48,15.45,26.76-585.61,314.81-569.25,343.14,16.05,27.79,559.15-351.63,571.62-330.03,19.21,33.27-559.6,286.56-539.83,320.8,17.12,29.66,530-338.24,543.96-314.05,15.64,27.08-545.31,287.24-527.49,318.1,19.32,33.47,516.69-332.16,531.34-306.77,18.22,31.56-508.02,285.57-496.14,306.13,12.73,22.04,488.23-319.16,504.37-291.2,12.43,21.53-489.64,263.11-473.88,290.4,12.35,21.39,441.24-292.6,457.63-264.21,12.61,21.84-445.22,254.32-435.44,271.25,13.83,23.95,438.34-274.88,447.79-258.53,14.65,25.37-434.43,222.77-418.63,250.14,11.51,19.93,392.08-250.1,402.36-232.3,8.87,15.36-390.96,214.47-381.23,231.34,8.64,14.97,385.89-253.77,399.31-230.54,12.92,22.38-382.32,220.23-374.3,234.12,8.43,14.61,356.16-223.42,363.86-210.08s-351,192.84-343.71,205.47c8.6,14.89,330.21-212.41,339.63-196.08,12.2,21.12-335.18,189.3-326.83,203.75,11.11,19.24,330.42-219.28,342.76-197.89,7.17,12.42-324.95,173.36-314.47,191.52,10.42,18.05,304.43-196.33,313.33-180.9s-312.97,171.28-303.79,187.18c8.5,14.73,290.16-188.92,299.43-172.87,8.22,14.23-284.7,164.84-278.47,175.62,9.07,15.71,267.55-171.36,274.86-158.69,4.96,8.59-234.76,134.74-226.38,149.27,8.5,14.72,213.81-140.63,221.25-127.74,4.76,8.24-212.22,118.9-204.39,132.48,5.28,9.14,204.9-128.97,209.52-120.96,5.19,8.99-198.85,116.94-193.53,126.15,6.4,11.08,194.16-121.17,198.09-114.37,5.94,10.28-159.49,99.35-154.18,108.55,3.38,5.85,142.95-92.98,147.47-85.14,3.31,5.74-121.19,75.29-117.56,81.57,4.23,7.32,116.87-74.7,120-69.28,2.52,4.37-109.28,64.38-106.11,69.88,2.7,4.68,105.84-68.62,109.09-62.99,2.68,4.65-97.47,59.38-94.94,63.76,3.36,5.81,90.13-57.5,92.49-53.4,2.14,3.7-70,49.25-68.03,52.66,2.36,4.08,75.84-47.38,77.4-44.69,1.93,3.35-65.12,43.32-63.17,46.69,1.33,2.3,46.09-29.68,47.42-27.38,1.51,2.61-40.26,29.04-38.73,31.68,.91,1.57,48.38-29.86,49.21-28.41,.65,1.13-21.97,20.03-21.21,21.33s14.89-10.32,15.64-9.03c.25,.44-1.4,10.36-1.05,10.96,.13,.23,8.23-5.2,8.43-4.86"/>
        </g>
    </g>
</svg>